{
    "asset" : {
        "generator" : "Khronos glTF Blender I/O v1.8.19",
        "version" : "2.0"
    },
    "scene" : 0,
    "scenes" : [
        {
            "name" : "Scene",
            "nodes" : [
                0,
                1,
                2,
                3,
                4,
                5,
                6,
                7
            ]
        }
    ],
    "nodes" : [
        {
            "mesh" : 0,
            "name" : "room"
        },
        {
            "mesh" : 1,
            "name" : "Stand_1",
            "rotation" : [
                0,
                0.7071068286895752,
                0,
                0.7071068286895752
            ],
            "translation" : [
                -2.501817226409912,
                0.6000000834465027,
                1.2609789371490479
            ]
        },
        {
            "mesh" : 2,
            "name" : "Cube",
            "rotation" : [
                0,
                0.7071068286895752,
                0,
                0.7071068286895752
            ],
            "translation" : [
                -2.7081093788146973,
                1.4210758209228516,
                1.2609789371490479
            ]
        },
        {
            "mesh" : 3,
            "name" : "Cube.001",
            "rotation" : [
                0,
                0.7071068286895752,
                0,
                0.7071068286895752
            ],
            "translation" : [
                -2.4450085163116455,
                1.294006586074829,
                1.2579890489578247
            ]
        },
        {
            "name" : "Empty"
        },
        {
            "mesh" : 4,
            "name" : "Stand_1.001",
            "translation" : [
                -0.15569759905338287,
                0.6000000238418579,
                1.3125131130218506
            ]
        },
        {
            "mesh" : 5,
            "name" : "Cube.baked",
            "translation" : [
                -0.15270759165287018,
                1.294006586074829,
                1.3693219423294067
            ]
        },
        {
            "name" : "GPencil",
            "translation" : [
                -0.15270759165287018,
                1.294006586074829,
                1.3693219423294067
            ]
        }
    ],
    "materials" : [
        {
            "doubleSided" : true,
            "name" : "booth_floor",
            "pbrMetallicRoughness" : {
                "baseColorTexture" : {
                    "index" : 0
                },
                "metallicFactor" : 0,
                "roughnessFactor" : 0.5
            }
        },
        {
            "doubleSided" : true,
            "name" : "booth_wall",
            "pbrMetallicRoughness" : {
                "baseColorFactor" : [
                    0.800000011920929,
                    0.800000011920929,
                    0.800000011920929,
                    1
                ],
                "metallicFactor" : 0,
                "roughnessFactor" : 0.5
            }
        },
        {
            "doubleSided" : true,
            "name" : "stand_white",
            "pbrMetallicRoughness" : {
                "baseColorFactor" : [
                    0.800000011920929,
                    0.800000011920929,
                    0.800000011920929,
                    1
                ],
                "metallicFactor" : 0,
                "roughnessFactor" : 0.7352941036224365
            }
        },
        {
            "doubleSided" : true,
            "name" : "monitor_housing",
            "pbrMetallicRoughness" : {
                "baseColorFactor" : [
                    0.3583681881427765,
                    0.3583681881427765,
                    0.3583681881427765,
                    1
                ],
                "metallicFactor" : 0,
                "roughnessFactor" : 0.5
            }
        },
        {
            "doubleSided" : true,
            "name" : "monitor_screen",
            "pbrMetallicRoughness" : {
                "baseColorTexture" : {
                    "index" : 1
                },
                "metallicFactor" : 0,
                "roughnessFactor" : 0.5
            }
        },
        {
            "doubleSided" : true,
            "name" : "Material.001",
            "pbrMetallicRoughness" : {
                "baseColorTexture" : {
                    "index" : 2
                },
                "metallicFactor" : 0,
                "roughnessFactor" : 0.5
            }
        }
    ],
    "meshes" : [
        {
            "name" : "Plane",
            "primitives" : [
                {
                    "attributes" : {
                        "POSITION" : 0,
                        "NORMAL" : 1,
                        "TEXCOORD_0" : 2
                    },
                    "indices" : 3,
                    "material" : 0
                },
                {
                    "attributes" : {
                        "POSITION" : 4,
                        "NORMAL" : 5,
                        "TEXCOORD_0" : 6
                    },
                    "indices" : 7,
                    "material" : 1
                }
            ]
        },
        {
            "name" : "Cube.001",
            "primitives" : [
                {
                    "attributes" : {
                        "POSITION" : 8,
                        "NORMAL" : 9,
                        "TEXCOORD_0" : 10
                    },
                    "indices" : 11,
                    "material" : 2
                }
            ]
        },
        {
            "name" : "Cube.002",
            "primitives" : [
                {
                    "attributes" : {
                        "POSITION" : 12,
                        "NORMAL" : 13,
                        "TEXCOORD_0" : 14
                    },
                    "indices" : 15,
                    "material" : 3
                },
                {
                    "attributes" : {
                        "POSITION" : 16,
                        "NORMAL" : 17,
                        "TEXCOORD_0" : 18
                    },
                    "indices" : 19,
                    "material" : 4
                }
            ]
        },
        {
            "name" : "Cube",
            "primitives" : [
                {
                    "attributes" : {
                        "POSITION" : 20,
                        "NORMAL" : 21,
                        "TEXCOORD_0" : 22
                    },
                    "indices" : 23,
                    "material" : 5
                }
            ]
        },
        {
            "name" : "Cube.003",
            "primitives" : [
                {
                    "attributes" : {
                        "POSITION" : 24,
                        "NORMAL" : 25,
                        "TEXCOORD_0" : 26
                    },
                    "indices" : 11,
                    "material" : 2
                }
            ]
        },
        {
            "name" : "Cube.005",
            "primitives" : [
                {
                    "attributes" : {
                        "POSITION" : 27,
                        "NORMAL" : 28,
                        "TEXCOORD_0" : 29
                    },
                    "indices" : 23,
                    "material" : 5
                }
            ]
        }
    ],
    "textures" : [
        {
            "sampler" : 0,
            "source" : 0
        },
        {
            "sampler" : 0,
            "source" : 1
        },
        {
            "sampler" : 0,
            "source" : 2
        }
    ],
    "images" : [
        {
            "bufferView" : 4,
            "mimeType" : "image/png",
            "name" : "uv_grid_1k"
        },
        {
            "bufferView" : 21,
            "mimeType" : "image/jpeg",
            "name" : "DLR RSC3_Vorlage Englisch"
        },
        {
            "bufferView" : 26,
            "mimeType" : "image/png",
            "name" : "Cube_baked"
        }
    ],
    "accessors" : [
        {
            "bufferView" : 0,
            "componentType" : 5126,
            "count" : 4,
            "max" : [
                3,
                0,
                2
            ],
            "min" : [
                -3,
                0,
                -1
            ],
            "type" : "VEC3"
        },
        {
            "bufferView" : 1,
            "componentType" : 5126,
            "count" : 4,
            "type" : "VEC3"
        },
        {
            "bufferView" : 2,
            "componentType" : 5126,
            "count" : 4,
            "type" : "VEC2"
        },
        {
            "bufferView" : 3,
            "componentType" : 5123,
            "count" : 6,
            "type" : "SCALAR"
        },
        {
            "bufferView" : 5,
            "componentType" : 5126,
            "count" : 8,
            "max" : [
                3,
                2.5,
                2
            ],
            "min" : [
                -3,
                0,
                -1
            ],
            "type" : "VEC3"
        },
        {
            "bufferView" : 6,
            "componentType" : 5126,
            "count" : 8,
            "type" : "VEC3"
        },
        {
            "bufferView" : 7,
            "componentType" : 5126,
            "count" : 8,
            "type" : "VEC2"
        },
        {
            "bufferView" : 8,
            "componentType" : 5123,
            "count" : 12,
            "type" : "SCALAR"
        },
        {
            "bufferView" : 9,
            "componentType" : 5126,
            "count" : 40,
            "max" : [
                0.25,
                0.6000000238418579,
                0.25
            ],
            "min" : [
                -0.25,
                -0.6000000238418579,
                -0.25
            ],
            "type" : "VEC3"
        },
        {
            "bufferView" : 10,
            "componentType" : 5126,
            "count" : 40,
            "type" : "VEC3"
        },
        {
            "bufferView" : 11,
            "componentType" : 5126,
            "count" : 40,
            "type" : "VEC2"
        },
        {
            "bufferView" : 12,
            "componentType" : 5123,
            "count" : 60,
            "type" : "SCALAR"
        },
        {
            "bufferView" : 13,
            "componentType" : 5126,
            "count" : 32,
            "max" : [
                0.3050000071525574,
                0.17156249284744263,
                0.014999999664723873
            ],
            "min" : [
                -0.3050000071525574,
                -0.17156249284744263,
                -0.014999999664723873
            ],
            "type" : "VEC3"
        },
        {
            "bufferView" : 14,
            "componentType" : 5126,
            "count" : 32,
            "type" : "VEC3"
        },
        {
            "bufferView" : 15,
            "componentType" : 5126,
            "count" : 32,
            "type" : "VEC2"
        },
        {
            "bufferView" : 16,
            "componentType" : 5123,
            "count" : 54,
            "type" : "SCALAR"
        },
        {
            "bufferView" : 17,
            "componentType" : 5126,
            "count" : 4,
            "max" : [
                0.2920987010002136,
                0.15969456732273102,
                0.014999999664723873
            ],
            "min" : [
                -0.2920987010002136,
                -0.15969456732273102,
                0.014999999664723873
            ],
            "type" : "VEC3"
        },
        {
            "bufferView" : 18,
            "componentType" : 5126,
            "count" : 4,
            "type" : "VEC3"
        },
        {
            "bufferView" : 19,
            "componentType" : 5126,
            "count" : 4,
            "type" : "VEC2"
        },
        {
            "bufferView" : 20,
            "componentType" : 5123,
            "count" : 6,
            "type" : "SCALAR"
        },
        {
            "bufferView" : 22,
            "componentType" : 5126,
            "count" : 52,
            "max" : [
                0.14999999105930328,
                0.05000000074505806,
                0.10000000149011612
            ],
            "min" : [
                -0.14999999105930328,
                -0.05000000074505806,
                -0.10000000149011612
            ],
            "type" : "VEC3"
        },
        {
            "bufferView" : 23,
            "componentType" : 5126,
            "count" : 52,
            "type" : "VEC3"
        },
        {
            "bufferView" : 24,
            "componentType" : 5126,
            "count" : 52,
            "type" : "VEC2"
        },
        {
            "bufferView" : 25,
            "componentType" : 5123,
            "count" : 132,
            "type" : "SCALAR"
        },
        {
            "bufferView" : 27,
            "componentType" : 5126,
            "count" : 40,
            "max" : [
                0.25,
                0.6000000238418579,
                0.25
            ],
            "min" : [
                -0.25,
                -0.6000000238418579,
                -0.25
            ],
            "type" : "VEC3"
        },
        {
            "bufferView" : 28,
            "componentType" : 5126,
            "count" : 40,
            "type" : "VEC3"
        },
        {
            "bufferView" : 29,
            "componentType" : 5126,
            "count" : 40,
            "type" : "VEC2"
        },
        {
            "bufferView" : 30,
            "componentType" : 5126,
            "count" : 52,
            "max" : [
                0.14999999105930328,
                0.05000000074505806,
                0.10000000149011612
            ],
            "min" : [
                -0.14999999105930328,
                -0.05000000074505806,
                -0.10000000149011612
            ],
            "type" : "VEC3"
        },
        {
            "bufferView" : 31,
            "componentType" : 5126,
            "count" : 52,
            "type" : "VEC3"
        },
        {
            "bufferView" : 32,
            "componentType" : 5126,
            "count" : 52,
            "type" : "VEC2"
        }
    ],
    "bufferViews" : [
        {
            "buffer" : 0,
            "byteLength" : 48,
            "byteOffset" : 0
        },
        {
            "buffer" : 0,
            "byteLength" : 48,
            "byteOffset" : 48
        },
        {
            "buffer" : 0,
            "byteLength" : 32,
            "byteOffset" : 96
        },
        {
            "buffer" : 0,
            "byteLength" : 12,
            "byteOffset" : 128
        },
        {
            "buffer" : 0,
            "byteLength" : 40135,
            "byteOffset" : 140
        },
        {
            "buffer" : 0,
            "byteLength" : 96,
            "byteOffset" : 40276
        },
        {
            "buffer" : 0,
            "byteLength" : 96,
            "byteOffset" : 40372
        },
        {
            "buffer" : 0,
            "byteLength" : 64,
            "byteOffset" : 40468
        },
        {
            "buffer" : 0,
            "byteLength" : 24,
            "byteOffset" : 40532
        },
        {
            "buffer" : 0,
            "byteLength" : 480,
            "byteOffset" : 40556
        },
        {
            "buffer" : 0,
            "byteLength" : 480,
            "byteOffset" : 41036
        },
        {
            "buffer" : 0,
            "byteLength" : 320,
            "byteOffset" : 41516
        },
        {
            "buffer" : 0,
            "byteLength" : 120,
            "byteOffset" : 41836
        },
        {
            "buffer" : 0,
            "byteLength" : 384,
            "byteOffset" : 41956
        },
        {
            "buffer" : 0,
            "byteLength" : 384,
            "byteOffset" : 42340
        },
        {
            "buffer" : 0,
            "byteLength" : 256,
            "byteOffset" : 42724
        },
        {
            "buffer" : 0,
            "byteLength" : 108,
            "byteOffset" : 42980
        },
        {
            "buffer" : 0,
            "byteLength" : 48,
            "byteOffset" : 43088
        },
        {
            "buffer" : 0,
            "byteLength" : 48,
            "byteOffset" : 43136
        },
        {
            "buffer" : 0,
            "byteLength" : 32,
            "byteOffset" : 43184
        },
        {
            "buffer" : 0,
            "byteLength" : 12,
            "byteOffset" : 43216
        },
        {
            "buffer" : 0,
            "byteLength" : 239014,
            "byteOffset" : 43228
        },
        {
            "buffer" : 0,
            "byteLength" : 624,
            "byteOffset" : 282244
        },
        {
            "buffer" : 0,
            "byteLength" : 624,
            "byteOffset" : 282868
        },
        {
            "buffer" : 0,
            "byteLength" : 416,
            "byteOffset" : 283492
        },
        {
            "buffer" : 0,
            "byteLength" : 264,
            "byteOffset" : 283908
        },
        {
            "buffer" : 0,
            "byteLength" : 1767176,
            "byteOffset" : 284172
        },
        {
            "buffer" : 0,
            "byteLength" : 480,
            "byteOffset" : 2051348
        },
        {
            "buffer" : 0,
            "byteLength" : 480,
            "byteOffset" : 2051828
        },
        {
            "buffer" : 0,
            "byteLength" : 320,
            "byteOffset" : 2052308
        },
        {
            "buffer" : 0,
            "byteLength" : 624,
            "byteOffset" : 2052628
        },
        {
            "buffer" : 0,
            "byteLength" : 624,
            "byteOffset" : 2053252
        },
        {
            "buffer" : 0,
            "byteLength" : 416,
            "byteOffset" : 2053876
        }
    ],
    "samplers" : [
        {
            "magFilter" : 9729,
            "minFilter" : 9987
        }
    ],
    "buffers" : [
        {
            "byteLength" : 2054292,
            "uri" : "data:application/octet-stream;base64,"
        }
    ]
}
